<svg width="225" height="190" viewBox="0 0 225 190" fill="none" xmlns="http://www.w3.org/2000/svg">
    <g filter="url(#5b6deu8uea)">
        <path d="m213 90.5 2.419-.63-2.419.63zM8.029.618A159.254 159.254 0 0 0 6.654 12.06l4.983.407c.284-3.476.725-7.166 1.332-11.083L8.03.618zm-.742 34.415c1.538 9.084 4.753 16.193 9.423 21.622l3.79-3.261c-3.97-4.615-6.867-10.833-8.283-19.196l-4.93.835zm29.68 33.728c6.952 1.891 14.733 2.578 22.986 2.52l-.036-5c-7.984.056-15.275-.614-21.638-2.344l-1.312 4.825zm45.692.924c7.32-.859 14.846-1.978 22.389-3.139l-.76-4.942c-7.537 1.16-14.986 2.267-22.211 3.115l.582 4.966zm44.615-6.486c7.593-1.057 15.039-1.937 22.187-2.423l-.339-4.988c-7.312.496-14.887 1.394-22.537 2.459l.689 4.952zm44.265-2.313c7.816.796 14.77 2.565 20.623 5.658l2.336-4.421c-6.592-3.483-14.221-5.373-22.453-6.211l-.506 4.974zm35.215 20.22c1.551 2.921 2.841 6.245 3.827 10.025l4.838-1.262c-1.074-4.118-2.498-7.81-4.249-11.108l-4.416 2.346zm3.827 10.025c1.159 4.442 1.984 8.646 2.504 12.624l4.958-.647c-.549-4.204-1.417-8.614-2.624-13.239l-4.838 1.262zm1.267 37.674c-2.315 8.466-6.648 15.432-12.535 21.164l3.489 3.582c6.488-6.318 11.305-14.053 13.869-23.427l-4.823-1.319zm-33.768 34.634c-7.479 3.127-15.816 5.466-24.691 7.158l.936 4.911c9.13-1.74 17.814-4.165 25.683-7.456l-1.928-4.613zm-50.411 10.301c-8.614.554-17.379.69-26.043.522l-.097 4.999c8.778.17 17.685.033 26.461-.531l-.321-4.99zm-52.105-.825a518.217 518.217 0 0 1-26.001-2.799l-.658 4.957a523.831 523.831 0 0 0 26.252 2.826l.407-4.984zm-51.865-6.854a427.42 427.42 0 0 1-9.33-1.797 283.22 283.22 0 0 1-2.48-.519l-.634-.138-.159-.035a4.073 4.073 0 0 1-.038-.009l-.01-.002h-.001L10.499 166l-.547 2.439v.001h.004a.734.734 0 0 1 .056.013l.169.037a251.339 251.339 0 0 0 3.184.672 429.95 429.95 0 0 0 9.44 1.818l.894-4.919zM213 90.501l4.838-1.263L213 90.5zM5.558.233a161.73 161.73 0 0 0-1.396 11.623l9.967.814c.278-3.41.712-7.04 1.31-10.903L5.56.234zM4.822 35.45c1.6 9.445 4.972 17 9.993 22.835l7.58-6.522c-3.62-4.207-6.358-9.98-7.713-17.982l-9.86 1.67zm31.489 35.724c7.246 1.97 15.273 2.666 23.66 2.606l-.072-10c-7.85.056-14.895-.605-20.964-2.256l-2.624 9.65zm46.64.994c7.368-.864 14.93-1.99 22.477-3.15l-1.52-9.885c-7.533 1.16-14.945 2.261-22.122 3.103l1.164 9.932zm44.668-6.493c7.563-1.053 14.946-1.925 22.011-2.404l-.677-9.977c-7.394.502-15.033 1.408-22.713 2.476l1.379 9.905zm43.666-2.302c7.609.775 14.225 2.483 19.71 5.381l4.671-8.842c-6.961-3.677-14.927-5.628-23.368-6.487l-1.013 9.948zm33.261 18.906c1.451 2.733 2.674 5.872 3.616 9.483l9.676-2.524c-1.118-4.288-2.609-8.164-4.46-11.65l-8.832 4.691zm3.616 9.483c1.135 4.35 1.939 8.451 2.444 12.317l9.916-1.294c-.564-4.317-1.453-8.83-2.684-13.547l-9.676 2.524zm1.274 36.384c-2.191 8.011-6.282 14.593-11.867 20.032l6.977 7.164c6.789-6.611 11.848-14.73 14.536-24.558l-9.646-2.638zm-32.321 32.987c-7.283 3.045-15.447 5.341-24.195 7.008l1.873 9.823c9.258-1.764 18.115-4.233 26.18-7.605l-3.858-9.226zm-49.606 10.112c-8.534.549-17.228.684-25.835.518l-.193 9.998c8.835.171 17.813.033 26.67-.536l-.642-9.98zm-51.742-.821a517.137 517.137 0 0 1-25.875-2.786l-1.316 9.913a527.222 527.222 0 0 0 26.378 2.84l.813-9.967zm-51.62-6.823a426.842 426.842 0 0 1-9.277-1.786c-1.076-.22-1.902-.395-2.455-.514l-.623-.136-.153-.034a.434.434 0 0 1-.036-.008l-.008-.001v-.001c-.001 0-.001 0 0 0L10.498 166l-1.095 4.879h.002l.004.001a.114.114 0 0 0 .013.003l.046.01.175.039.668.145a283.7 283.7 0 0 0 2.55.534 436.59 436.59 0 0 0 9.495 1.829l1.79-9.839z" fill="#B33951"/>
    </g>
    <defs>
        <filter id="5b6deu8uea" x=".162" y=".234" width="224.359" height="189.595" filterUnits="userSpaceOnUse" color-interpolation-filters="sRGB">
            <feFlood flood-opacity="0" result="BackgroundImageFix"/>
            <feColorMatrix in="SourceAlpha" values="0 0 0 0 0 0 0 0 0 0 0 0 0 0 0 0 0 0 127 0" result="hardAlpha"/>
            <feOffset dy="4"/>
            <feGaussianBlur stdDeviation="2"/>
            <feComposite in2="hardAlpha" operator="out"/>
            <feColorMatrix values="0 0 0 0 0 0 0 0 0 0 0 0 0 0 0 0 0 0 0.25 0"/>
            <feBlend in2="BackgroundImageFix" result="effect1_dropShadow_211_355"/>
            <feBlend in="SourceGraphic" in2="effect1_dropShadow_211_355" result="shape"/>
        </filter>
    </defs>
</svg>
