<svg width="208" height="167" viewBox="0 0 208 167" fill="none" xmlns="http://www.w3.org/2000/svg">
    <g filter="url(#1v2kgzbi8a)">
        <path d="m14.5 50.002-2.295-.99 2.295.99zM201.5 26l-.916 2.326h-.002l-.008-.004a1.662 1.662 0 0 1-.036-.014l-.148-.057a184.73 184.73 0 0 0-2.942-1.099 297.172 297.172 0 0 0-8.836-3.046l1.56-4.751a301.508 301.508 0 0 1 8.985 3.098 184.188 184.188 0 0 1 3.037 1.135l.163.063.043.017.011.004.004.002h.001L201.5 26zm-37.588-9.044c-7.66-1.93-16.143-3.801-25.079-5.333l.844-4.928c9.083 1.557 17.693 3.456 25.456 5.412l-1.221 4.849zm-50.488-8.472c-8.507-.608-17.09-.73-25.48-.172l-.333-4.989c8.66-.577 17.476-.447 26.169.173l-.356 4.988zm-50.432 3.923c-8.25 2.32-15.939 5.643-22.764 10.197l-2.775-4.16c7.334-4.893 15.52-8.414 24.186-10.85l1.353 4.813zM22.744 40.008c-2.229 3.33-4.223 6.982-5.948 10.983l-4.591-1.98c1.842-4.273 3.98-8.194 6.384-11.784l4.155 2.781zm-5.948 10.983c-1.912 4.434-3.37 8.498-4.425 12.226l-4.81-1.36c1.123-3.972 2.66-8.243 4.644-12.845l4.591 1.98zM11.933 87.66c2.847 7.472 9.012 12.618 17.233 16.81l-2.272 4.454c-8.72-4.446-16.151-10.346-19.634-19.483l4.673-1.78zm41.605 26.282c8.568 2.961 17.349 6.13 24.832 10.533l-2.535 4.309c-6.995-4.115-15.324-7.142-23.93-10.117l1.633-4.725zm43.204 31.156C98.21 149.196 99 153.801 99 159h-5c0-4.685-.71-8.713-1.965-12.217l4.707-1.686zM14.5 50.002l-4.591-1.98 4.591 1.98zM201.5 26l-1.833 4.652h.001-.001l-.006-.002-.032-.013a69.334 69.334 0 0 0-.724-.278c-.52-.197-1.297-.488-2.312-.858a294.58 294.58 0 0 0-8.76-3.02l3.118-9.501a304.39 304.39 0 0 1 9.061 3.124 186.276 186.276 0 0 1 3.254 1.218l.047.018.013.006.004.001h.002v.001L201.5 26zm-38.199-6.62c-7.608-1.917-16.028-3.774-24.891-5.293l1.69-9.856c9.156 1.57 17.829 3.483 25.644 5.452l-2.443 9.697zm-50.055-8.403c-8.414-.6-16.88-.72-25.137-.17L87.445.829c8.795-.586 17.728-.453 26.513.174l-.712 9.974zm-49.577 3.837c-8.044 2.26-15.482 5.485-22.054 9.87l-5.55-8.319c7.589-5.063 16.024-8.684 24.897-11.178l2.707 9.627zM24.822 41.399c-2.142 3.2-4.064 6.717-5.73 10.582l-9.183-3.959c1.901-4.41 4.112-8.465 6.603-12.186l8.31 5.563zm-5.73 10.582c-1.876 4.35-3.294 8.31-4.315 11.917l-9.622-2.722c1.158-4.093 2.733-8.468 4.754-13.154l9.183 3.96zM14.269 86.77c2.53 6.639 8.061 11.408 16.032 15.473l-4.542 8.909c-8.97-4.574-17.035-10.851-20.835-20.82l9.345-3.562zm40.086 24.809c8.549 2.955 17.556 6.195 25.283 10.741l-5.071 8.619c-6.751-3.972-14.854-6.928-23.479-9.909l3.267-9.451zm44.74 32.676c1.576 4.397 2.405 9.29 2.405 14.746h-10c0-4.429-.67-8.168-1.819-11.373l9.414-3.373z" fill="#B33951"/>
    </g>
    <defs>
        <filter id="1v2kgzbi8a" x=".924" y=".454" width="206.408" height="166.546" filterUnits="userSpaceOnUse" color-interpolation-filters="sRGB">
            <feFlood flood-opacity="0" result="BackgroundImageFix"/>
            <feColorMatrix in="SourceAlpha" values="0 0 0 0 0 0 0 0 0 0 0 0 0 0 0 0 0 0 127 0" result="hardAlpha"/>
            <feOffset dy="4"/>
            <feGaussianBlur stdDeviation="2"/>
            <feComposite in2="hardAlpha" operator="out"/>
            <feColorMatrix values="0 0 0 0 0 0 0 0 0 0 0 0 0 0 0 0 0 0 0.25 0"/>
            <feBlend in2="BackgroundImageFix" result="effect1_dropShadow_211_357"/>
            <feBlend in="SourceGraphic" in2="effect1_dropShadow_211_357" result="shape"/>
        </filter>
    </defs>
</svg>
