<svg width="48" height="48" viewBox="0 0 48 48" fill="none" xmlns="http://www.w3.org/2000/svg">
    <path d="M23.806 15.871c-4.372 0-7.94 3.569-7.94 7.941s3.568 7.94 7.94 7.94 7.94-3.567 7.94-7.94c0-4.372-3.567-7.94-7.94-7.94zm23.816 7.941c0-3.288.03-6.547-.155-9.83-.184-3.812-1.054-7.195-3.842-9.983C40.831 1.205 37.454.34 33.641.157c-3.288-.185-6.547-.155-9.829-.155-3.288 0-6.547-.03-9.83.155C10.17.34 6.788 1.21 4 3.999 1.205 6.793.34 10.17.157 13.983-.028 17.27.002 20.53.002 23.812c0 3.282-.03 6.547.155 9.83.184 3.812 1.054 7.195 3.842 9.983 2.794 2.794 6.171 3.658 9.984 3.842 3.288.185 6.547.155 9.829.155 3.288 0 6.547.03 9.83-.155 3.812-.184 7.195-1.054 9.983-3.842 2.794-2.794 3.658-6.171 3.842-9.984.191-3.282.155-6.54.155-9.829zM23.806 36.03a12.2 12.2 0 0 1-12.218-12.218 12.2 12.2 0 0 1 12.218-12.218 12.2 12.2 0 0 1 12.218 12.218A12.2 12.2 0 0 1 23.806 36.03zm12.718-22.083a2.85 2.85 0 0 1-2.853-2.853 2.85 2.85 0 0 1 2.853-2.854 2.85 2.85 0 0 1 2.854 2.854 2.852 2.852 0 0 1-2.854 2.853z" fill="#fff"/>
</svg>
