<svg width="48" height="48" viewBox="0 0 48 48" fill="none" xmlns="http://www.w3.org/2000/svg">
    <path d="M42.286 0H5.714A5.716 5.716 0 0 0 0 5.714v36.572A5.716 5.716 0 0 0 5.714 48h36.572A5.716 5.716 0 0 0 48 42.286V5.714A5.716 5.716 0 0 0 42.286 0zM14.857 18.286V40H8V18.286h6.857zM8 11.966c0-1.6 1.371-2.823 3.429-2.823 2.057 0 3.348 1.223 3.428 2.823 0 1.6-1.28 2.891-3.428 2.891C9.37 14.857 8 13.566 8 11.966zM40 40h-6.857V28.571c0-2.285-1.143-4.571-4-4.617h-.092c-2.765 0-3.908 2.355-3.908 4.617V40h-6.857V18.286h6.857v2.925s2.206-2.925 6.64-2.925c4.537 0 8.217 3.12 8.217 9.44V40z" fill="#fff"/>
</svg>
