<svg width="57" height="63" viewBox="0 0 57 63" fill="none" xmlns="http://www.w3.org/2000/svg">
    <g filter="url(#68hwspnl3a)" shape-rendering="crispEdges">
        <path d="M52.755 2H4.297c-.686 0-1.215.605-1.123 1.285l6.754 50.006c.06.443.375.81.805.936l18.692 5.479c.21.061.433.06.643-.002l18.326-5.465c.443-.133.76-.52.804-.98l4.686-50.02A1.133 1.133 0 0 0 52.755 2z" fill="#1E435E"/>
        <path d="M52.755 2H4.297c-.686 0-1.215.605-1.123 1.285l6.754 50.006c.06.443.375.81.805.936l18.692 5.479c.21.061.433.06.643-.002l18.326-5.465c.443-.133.76-.52.804-.98l4.686-50.02A1.133 1.133 0 0 0 52.755 2z" stroke="#000" stroke-opacity=".03" stroke-width=".138"/>
    </g>
    <mask id="yew3htla4b" fill="#fff">
        <path fill-rule="evenodd" clip-rule="evenodd" d="M29.464 57.763V3.792h21.678c.674 0 1.203.578 1.143 1.25L48.083 51.91a1.147 1.147 0 0 1-.802.993L30.924 58c-.22.07-.456.07-.677.002l-.783-.24z"/>
    </mask>
    <path fill-rule="evenodd" clip-rule="evenodd" d="M29.464 57.763V3.792h21.678c.674 0 1.203.578 1.143 1.25L48.083 51.91a1.147 1.147 0 0 1-.802.993L30.924 58c-.22.07-.456.07-.677.002l-.783-.24z" fill="#255477"/>
    <path d="M29.464 57.763h-.137v.102l.097.03.04-.132zm0-53.971v-.138h-.137v.138h.137zm22.82 1.25-.136-.013.137.013zM48.084 51.91l-.137-.013.137.013zm-.802.993-.04-.132.04.132zM30.924 58l.041.132-.04-.132zm-.677.002-.04.132.04-.132zm-.645-.24V3.792h-.276v53.971h.276zm21.54-54.109H29.464v.276h21.678v-.276zm1.28 1.4a1.285 1.285 0 0 0-1.28-1.4v.276a1.01 1.01 0 0 1 1.005 1.1l.275.024zm-4.202 46.87 4.202-46.87-.274-.025-4.203 46.87.275.024zm-.898 1.111c.497-.154.852-.594.898-1.112l-.274-.025a1.01 1.01 0 0 1-.706.874l.082.263zm-16.357 5.098 16.357-5.098-.082-.263-16.357 5.098.082.263zm-.758.002c.247.076.511.075.758-.002l-.082-.263a1.01 1.01 0 0 1-.596.001l-.08.264zm-.783-.24.783.24.08-.264-.782-.24-.081.264z" fill="#000" fill-opacity=".03" mask="url(#yew3htla4b)"/>
    <g filter="url(#74xjjpcxsc)" shape-rendering="crispEdges">
        <path d="M44.564 12.752h-30.33a.69.69 0 0 0-.686.755l1.716 17.813a.69.69 0 0 0 .686.623h20.519a.69.69 0 0 1 .687.746l-.61 7.441a.69.69 0 0 1-.51.61l-6.321 1.677a.688.688 0 0 1-.35 0l-6.469-1.681a.689.689 0 0 1-.512-.598l-.459-4.589a.69.69 0 0 0-.686-.62h-5.157a.69.69 0 0 0-.686.755l.878 9.152a.69.69 0 0 0 .5.598l12.578 3.516a.689.689 0 0 0 .375 0l12.293-3.513a.69.69 0 0 0 .497-.604l1.601-18.681a.69.69 0 0 0-.686-.748H21.13a.69.69 0 0 1-.69-.69v-5.16c0-.381.31-.69.69-.69h22.992c.356 0 .654-.27.686-.625l.44-4.735a.69.69 0 0 0-.685-.752z" fill="#0F9AFF" fill-opacity=".46"/>
        <path d="M44.564 12.682h-30.33a.758.758 0 0 0-.754.831l1.715 17.814a.758.758 0 0 0 .755.685h20.519a.62.62 0 0 1 .618.671l-.61 7.442a.62.62 0 0 1-.46.548l-6.32 1.677a.62.62 0 0 1-.315.001l-6.468-1.682a.62.62 0 0 1-.461-.538l-.46-4.589a.758.758 0 0 0-.754-.682h-5.157a.758.758 0 0 0-.755.83l.878 9.153c.03.311.249.573.55.657l12.579 3.517a.758.758 0 0 0 .412-.001l12.293-3.513a.758.758 0 0 0 .547-.664l1.601-18.681a.758.758 0 0 0-.755-.823H21.13a.62.62 0 0 1-.62-.62v-5.161a.62.62 0 0 1 .62-.62h22.992a.758.758 0 0 0 .755-.689l.44-4.734a.758.758 0 0 0-.754-.829z" stroke="#000" stroke-opacity=".03" stroke-width=".138"/>
    </g>
    <g filter="url(#09acqcluqd)">
        <path d="M44.484 31.593h-2.62l1.276-3.545 1.344 3.545zm-2.52-6.872-4.368 11.425h2.62l.891-2.47h4.15l.924 2.638 2.588-.303-4.352-11.29h-2.453z" fill="#DB3333"/>
        <path d="M44.484 31.593v.056h.082l-.029-.076-.053.02zm-2.62 0-.053-.02-.028.076h.08v-.056zm1.276-3.545.053-.02-.054-.142-.052.143.053.019zm-1.176-3.327v-.056h-.038l-.014.036.052.02zm-4.368 11.425-.053-.02-.029.076h.082v-.056zm2.62 0v.056h.04l.014-.037-.053-.02zm.891-2.47v-.056h-.04l-.013.037.053.02zm4.15 0 .053-.019-.013-.037h-.04v.056zm.924 2.638-.053.019.015.042.045-.005-.007-.056zm2.588-.303.006.056.072-.008-.026-.068-.052.02zm-4.352-11.29.053-.02-.014-.036h-.039v.056zm.067 6.816h-2.62v.112h2.62v-.113zm-2.568.075 1.277-3.545-.106-.038-1.277 3.545.106.038zm1.172-3.544 1.344 3.545.105-.04-1.344-3.545-.105.04zM41.912 24.7l-4.369 11.425.105.04 4.369-11.425-.105-.04zm-4.316 11.501h2.62v-.112h-2.62v.112zm2.674-.037.89-2.47-.105-.038-.891 2.47.106.038zm.837-2.433h4.15v-.112h-4.15v.112zm4.097-.037.924 2.638.106-.038-.924-2.638-.106.038zm.984 2.675 2.587-.303-.013-.111-2.587.302.013.112zm2.633-.379-4.351-11.29-.105.04 4.351 11.29.105-.04zm-4.404-11.326h-2.453v.112h2.453v-.112z" fill="#000" fill-opacity=".03"/>
    </g>
    <path fill-rule="evenodd" clip-rule="evenodd" d="M43.61 33.69h1.626l.924 2.638 2.587-.303-4.351-11.29h-2.453l-1.69 4.418c.639.587 1.251 1.212 1.793 1.886l1.073-2.978 1.344 3.546h-1.987a9.39 9.39 0 0 1 1.135 2.083z" fill="#E33E3E"/>
    <path fill-rule="evenodd" clip-rule="evenodd" d="m47.01 36.165 1.77-.207-4.347-11.279h-2.438l-1.052 2.752c.936.608 1.615.699 2.154.74l.06-.165.007.02.012-.035.072.19c1.185.08 1.684.128 2.943 5.877.212.967.494 1.657.82 2.107z" fill="#EE4343"/>
    <g filter="url(#v1hpgg1lne)">
        <path d="M29.713 36.079c1.097-.012 2.044-.247 2.84-.706a4.734 4.734 0 0 0 1.864-2c.437-.862.655-1.887.655-3.074 0-1.087-.201-2.05-.605-2.89a4.604 4.604 0 0 0-1.764-2.016c-.784-.493-1.77-.74-2.957-.74h-4.771V36.08h4.738zm0-9.291c.593 0 1.08.145 1.461.436.392.291.684.7.874 1.227.202.526.302 1.142.302 1.848 0 .851-.117 1.546-.352 2.083-.236.538-.56.936-.975 1.193-.414.247-.896.37-1.445.37h-1.982v-7.157h2.117z" fill="#FED766"/>
        <path d="M29.713 36.079v.115-.115zm2.84-.706.057.1-.058-.1zm1.864-2 .103.053-.103-.052zm.05-5.964-.105.049.001.001.105-.05zm-1.764-2.016.062-.098-.062.098zm-7.728-.74v-.115h-.116v.116h.116zm0 11.426h-.116v.115h.116v-.115zm6.2-8.855-.07.092v.001l.07-.093zm.873 1.227-.109.04.001.001.108-.041zm-.05 3.931-.106-.046.106.046zm-.975 1.193.06.1.001-.002-.06-.098zm-3.427.37h-.116v.115h.116v-.115zm0-7.157v-.116h-.116v.116h.116zm2.118 9.406c1.114-.011 2.08-.25 2.896-.72l-.116-.201c-.775.447-1.7.679-2.782.69l.002.231zm2.896-.721a4.85 4.85 0 0 0 1.91-2.047l-.206-.105a4.619 4.619 0 0 1-1.82 1.952l.116.2zm1.91-2.047c.447-.882.668-1.926.668-3.127h-.231c0 1.173-.216 2.18-.643 3.022l.206.105zm.668-3.127c0-1.101-.204-2.082-.616-2.94l-.209.1c.395.822.594 1.768.594 2.84h.23zm-.616-2.938a4.72 4.72 0 0 0-1.807-2.066l-.123.196a4.489 4.489 0 0 1 1.72 1.966l.21-.096zm-1.807-2.066c-.807-.507-1.816-.757-3.019-.757v.231c1.172 0 2.135.243 2.896.722l.123-.196zm-3.019-.757h-4.771v.231h4.771v-.23zm-4.887.116v11.425h.231V24.654h-.23zm.116 11.54h4.738v-.231h-4.738v.231zm4.738-9.29c.574 0 1.035.14 1.391.412l.14-.183c-.405-.31-.918-.461-1.531-.461v.231zm1.392.413c.372.276.65.665.834 1.173l.218-.078c-.197-.545-.5-.974-.914-1.28l-.138.185zm.835 1.175c.196.51.295 1.112.295 1.807h.231c0-.716-.102-1.347-.31-1.89l-.216.083zm.295 1.807c0 .842-.117 1.519-.343 2.037l.212.093c.243-.558.362-1.27.362-2.13h-.231zm-.343 2.037c-.228.52-.539.898-.93 1.141l.122.196c.438-.272.777-.69 1.02-1.244l-.212-.093zm-.928 1.14c-.394.234-.855.353-1.386.353v.231c.567 0 1.07-.127 1.504-.385l-.118-.2zm-1.386.353h-1.982v.231h1.982v-.23zm-1.867.116v-7.157h-.23v7.157h.23zm-.115-7.042h2.117v-.231h-2.117v.231z" fill="#000" fill-opacity=".03"/>
        <path fill-rule="evenodd" clip-rule="evenodd" d="M31.89 32.712c.17.961.052 1.862-.453 2.602-.173.254-.258.45-.267.593a5.069 5.069 0 0 0 1.452-.555 4.735 4.735 0 0 0 1.865-1.999c.437-.863.655-1.887.655-3.075 0-1.086-.201-2.05-.604-2.89a4.604 4.604 0 0 0-1.764-2.016c-.785-.492-1.77-.739-2.957-.739h-4.772v.385c.972.385 1.958.998 2.87 1.749h1.868c.594 0 1.08.145 1.462.437.392.29.683.7.873 1.226.202.527.303 1.143.303 1.848 0 .852-.118 1.546-.353 2.084a3.354 3.354 0 0 1-.178.35z" fill="#FBDC84"/>
        <path d="m31.437 35.315-.048-.033.048.033zm.453-2.603-.05-.03-.01.02.004.02.056-.01zm-.72 3.195-.058-.003-.005.076.076-.016-.013-.057zm1.452-.555.03.05-.03-.05zm1.865-1.999.052.026-.052-.026zm.05-5.965-.052.025.053-.024zm-1.764-2.016.031-.049-.03.05zm-7.728-.739v-.058h-.058v.058h.058zm0 .385h-.058v.04l.037.014.02-.054zm2.87 1.749-.037.044.016.014h.021v-.058zm3.33.437-.036.046h.001l.035-.046zm.873 1.226-.054.02.054-.02zm-.05 3.932.053.023-.053-.023zm-.584 2.985c.517-.757.635-1.674.463-2.645l-.113.02c.168.95.05 1.835-.445 2.56l.095.065zm-.256.564c.008-.127.085-.312.256-.564l-.095-.065c-.174.255-.266.462-.277.622l.116.007zm-.046.053a5.126 5.126 0 0 0 1.47-.562l-.059-.1c-.432.25-.91.433-1.435.549l.024.113zm1.47-.562a4.792 4.792 0 0 0 1.887-2.023l-.103-.052a4.677 4.677 0 0 1-1.843 1.975l.058.1zm1.887-2.023c.442-.872.661-1.906.661-3.1h-.115c0 1.18-.217 2.195-.65 3.048l.104.052zm.661-3.1c0-1.094-.203-2.067-.61-2.916l-.104.05c.399.832.599 1.786.599 2.865h.115zm-.61-2.915a4.663 4.663 0 0 0-1.786-2.04l-.061.097a4.546 4.546 0 0 1 1.742 1.992l.105-.049zm-1.786-2.04c-.795-.5-1.792-.749-2.988-.749v.116c1.18 0 2.154.245 2.927.73l.061-.098zm-2.988-.749h-4.771v.116h4.771v-.116zm-4.829.058v.385h.116v-.385h-.116zm2.965 2.09c-.916-.755-1.907-1.37-2.886-1.759l-.042.108c.965.383 1.946.992 2.854 1.74l.074-.09zm-.037.102h1.868v-.116h-1.868v.116zm1.868 0c.584 0 1.058.143 1.426.425l.07-.092c-.392-.3-.893-.449-1.496-.449v.116zm1.427.425c.382.284.667.682.854 1.2l.109-.04c-.194-.535-.492-.954-.894-1.253l-.069.093zm.854 1.2c.199.52.299 1.128.299 1.828h.115c0-.71-.101-1.334-.306-1.868l-.108.04zm.299 1.828c0 .847-.117 1.533-.348 2.06l.106.047c.24-.548.357-1.25.357-2.107h-.115zm-.348 2.06a3.307 3.307 0 0 1-.175.345l.1.058c.065-.111.126-.23.18-.356l-.105-.046z" fill="#000" fill-opacity=".03"/>
        <path fill-rule="evenodd" clip-rule="evenodd" d="M31.647 24.979c2.163 2.892 2.187 8.88-.627 10.377-.525.279-.603.517-.365.692a5.225 5.225 0 0 0 1.84-.628 4.735 4.735 0 0 0 1.866-2c.436-.862.655-1.887.655-3.074 0-1.086-.202-2.05-.605-2.89a4.605 4.605 0 0 0-1.764-2.016 4.403 4.403 0 0 0-1-.461z" fill="#FFE8A8"/>
        <path d="m31.02 35.355.027.052-.027-.051zm.627-10.376.017-.055-.172-.055.108.145.047-.035zm-.992 11.069-.035.046.02.014.023-.003-.008-.057zm1.84-.628.03.05-.03-.05zm1.866-2 .051.027-.051-.026zm.05-5.964-.053.025.053-.025zm-1.764-2.016.03-.049-.03.05zm-1.6 9.967c1.435-.764 2.135-2.663 2.21-4.714.076-2.055-.473-4.29-1.564-5.749l-.093.07c1.072 1.433 1.617 3.638 1.542 5.674-.075 2.04-.77 3.883-2.15 4.616l.055.103zm-.358.594a.255.255 0 0 1-.097-.115.152.152 0 0 1 .012-.12c.046-.099.182-.22.443-.36l-.054-.102c-.264.14-.43.278-.494.412a.268.268 0 0 0-.016.208.368.368 0 0 0 .137.17l.069-.093zm-.026.104a5.282 5.282 0 0 0 1.862-.635l-.058-.1a5.165 5.165 0 0 1-1.821.62l.017.115zm1.862-.635a4.793 4.793 0 0 0 1.887-2.023l-.103-.052a4.677 4.677 0 0 1-1.842 1.975l.058.1zm1.887-2.023c.442-.872.662-1.906.662-3.1h-.116c0 1.18-.217 2.195-.649 3.048l.103.052zm.662-3.1c0-1.095-.203-2.067-.61-2.916l-.105.05c.399.831.6 1.786.6 2.865h.115zm-.61-2.915a4.662 4.662 0 0 0-1.786-2.04l-.062.097a4.546 4.546 0 0 1 1.742 1.992l.106-.049zm-1.786-2.04a4.457 4.457 0 0 0-1.014-.468l-.035.11c.36.116.688.267.987.455l.062-.098z" fill="#000" fill-opacity=".03"/>
        <g filter="url(#stg3a2382f)">
            <path d="m33.342 28.987.22.679h.715l-.578.42.22.679-.577-.42-.578.42.221-.68-.578-.42h.714l.221-.678z" fill="#096412"/>
            <path d="m33.342 29.174.166.51.013.04H34.099l-.434.315-.034.024.013.04.166.51-.434-.315-.034-.025-.034.025-.434.315.166-.51.013-.04-.034-.024-.434-.315H33.163l.013-.04.166-.51z" stroke="#000" stroke-opacity=".03" stroke-width=".116"/>
        </g>
    </g>
    <g filter="url(#80qaoeg6hg)">
        <g filter="url(#br7jqwzplh)">
            <path d="M15.868 31.627h2.184v2.369a39.83 39.83 0 0 1-.638.1c-.224.023-.47.034-.74.034-.56 0-1.086-.135-1.579-.403-.481-.28-.873-.7-1.176-1.26-.29-.56-.436-1.25-.436-2.067 0-.638.095-1.193.285-1.663.202-.482.46-.88.773-1.193a3.266 3.266 0 0 1 1.092-.706 3.492 3.492 0 0 1 1.243-.235c.303 0 .577.017.824.05.246.034.51.084.79.152.28.067.604.162.974.285l.806-1.814a4.588 4.588 0 0 0-1.109-.47 8.211 8.211 0 0 0-1.243-.27 6.85 6.85 0 0 0-1.075-.1c-.851 0-1.647.14-2.386.42a5.867 5.867 0 0 0-1.932 1.21 5.538 5.538 0 0 0-1.31 1.898c-.303.728-.454 1.546-.454 2.453 0 1.165.235 2.19.705 3.074a5.127 5.127 0 0 0 2.05 2.067c.885.493 1.932.74 3.142.74a9.17 9.17 0 0 0 1.327-.102c.47-.067.919-.162 1.344-.285a6.27 6.27 0 0 0 1.076-.437v-5.813h-4.318l-.219 1.965z" fill="#09D01D"/>
            <path d="m15.868 31.627-.115-.013-.014.128h.13v-.116zm2.184 0h.116v-.116h-.116v.116zm0 2.369.02.113.096-.016v-.098h-.116zm-.638.1.012.116.005-.001-.017-.115zm-2.319-.37-.058.1.003.002.056-.101zm-1.176-1.26-.102.054v.002l.102-.055zm-.15-3.73-.107-.044-.001.001.107.044zm.772-1.192-.08-.083-.002.001.082.082zm1.092-.706-.04-.108h-.002l.042.108zm2.067-.185.015-.114-.015.114zm.79.152.026-.113-.027.113zm.974.285-.037.11.1.033.043-.096-.106-.047zm.806-1.814.106.047.041-.093-.087-.053-.06.099zm-1.109-.47-.033.11h.001l.032-.11zm-1.243-.27-.018.114h.003l.015-.114zm-3.461.32-.04-.109h-.002l.042.109zm-1.932 1.21.08.084-.08-.085zm-1.31 1.898-.107-.045.106.045zm.251 5.527-.102.055.102-.055zm2.05 2.067.056-.101-.056.101zm4.47.639-.017-.115.016.114zm1.343-.286.033.11h.002l-.035-.11zm1.076-.437.054.102.061-.033v-.069h-.115zm0-5.813h.115v-.116h-.115v.116zm-4.318 0v-.116h-.104l-.011.103.115.013zm-.219 2.081h2.184v-.231h-2.184v.231zm2.069-.116v2.37h.231v-2.37h-.231zm.096 2.256c-.2.033-.413.066-.636.1l.034.229c.225-.034.438-.068.64-.102l-.038-.227zm-.63.1c-.22.021-.462.032-.728.032v.231c.272 0 .522-.01.75-.034l-.022-.23zm-.728.032c-.54 0-1.048-.13-1.524-.389l-.11.203c.509.278 1.054.417 1.634.417v-.23zm-1.521-.387c-.461-.268-.84-.671-1.133-1.215l-.203.11c.31.576.717 1.012 1.22 1.305l.116-.2zm-1.132-1.214c-.28-.54-.424-1.209-.424-2.013h-.231c0 .83.148 1.54.45 2.12l.205-.107zm-.424-2.013c0-.627.094-1.166.277-1.62l-.214-.087c-.197.488-.294 1.057-.294 1.707h.231zm.277-1.619c.197-.47.447-.854.748-1.155l-.164-.164a3.776 3.776 0 0 0-.797 1.23l.213.09zm.746-1.154c.315-.303.666-.53 1.054-.681l-.084-.216a3.382 3.382 0 0 0-1.13.73l.16.167zm1.053-.68a3.377 3.377 0 0 1 1.202-.229v-.23c-.429 0-.857.08-1.284.242l.082.216zm1.202-.229c.299 0 .568.017.808.05l.031-.23a6.249 6.249 0 0 0-.839-.05v.23zm.808.05c.242.033.502.082.778.149l.054-.225a8.175 8.175 0 0 0-.8-.153l-.032.229zm.778.149c.276.066.598.16.965.283l.073-.22c-.371-.123-.7-.22-.984-.288l-.054.225zm1.108.22.806-1.814-.211-.094-.807 1.814.212.094zm.76-1.96a4.704 4.704 0 0 0-1.136-.483l-.065.222c.418.121.778.274 1.081.458l.12-.197zm-1.136-.483a8.343 8.343 0 0 0-1.26-.272l-.031.229c.408.055.817.143 1.226.265l.065-.222zm-1.257-.272a6.97 6.97 0 0 0-1.094-.102v.231c.294 0 .646.033 1.057.1l.037-.229zm-1.094-.102c-.864 0-1.674.142-2.427.427l.082.217a6.564 6.564 0 0 1 2.345-.413v-.231zm-2.428.428a5.984 5.984 0 0 0-1.97 1.233l.16.168a5.751 5.751 0 0 1 1.893-1.186l-.082-.215zm-1.97 1.233a5.656 5.656 0 0 0-1.337 1.938l.213.09a5.424 5.424 0 0 1 1.283-1.86l-.158-.168zm-1.337 1.938c-.31.744-.463 1.578-.463 2.498h.231c0-.895.15-1.697.445-2.409l-.213-.088zm-.463 2.498c0 1.18.239 2.225.72 3.129l.204-.109c-.46-.865-.693-1.871-.693-3.02h-.23zm.72 3.13a5.242 5.242 0 0 0 2.095 2.112l.112-.202a5.012 5.012 0 0 1-2.004-2.02l-.203.11zm2.095 2.112c.905.504 1.972.754 3.198.754v-.231c-1.194 0-2.221-.243-3.086-.725l-.112.202zm3.198.754c.432 0 .88-.034 1.344-.102l-.033-.229c-.455.066-.891.1-1.311.1v.23zm1.344-.102a9.945 9.945 0 0 0 1.36-.29l-.065-.221c-.42.121-.863.216-1.328.282l.033.229zm1.362-.29c.43-.136.796-.284 1.095-.445l-.11-.204a6.157 6.157 0 0 1-1.054.429l.07.22zm1.156-.547v-5.813h-.23v5.813h.23zm-.115-5.929h-4.318v.231h4.318v-.23zm-4.433.103-.219 1.966.23.025.219-1.965-.23-.026z" fill="#000" fill-opacity=".03"/>
            <path fill-rule="evenodd" clip-rule="evenodd" d="M19.718 26.49c-3.489-.366-7.721-.387-8.279 1.76-.171.658-.375.846-.55.717a5.542 5.542 0 0 1 1.617-2.887 5.87 5.87 0 0 1 1.931-1.21 6.68 6.68 0 0 1 2.386-.42c.303 0 .661.034 1.075.102.415.056.83.145 1.244.268.425.124.795.28 1.109.47l-.533 1.2z" fill="#0FFF73" fill-opacity=".08"/>
            <path d="m19.718 26.49-.006.057.042.004.017-.038-.053-.024zm-8.279 1.76.056.014-.056-.015zm-.55.717-.057-.012-.008.037.03.022.035-.047zm.306-.988-.053-.023.053.023zm1.31-1.898.04.042-.04-.043zm1.932-1.21-.02-.054.02.054zm3.461-.32-.009.058h.002l.008-.057zm1.244.27-.017.055.017-.056zm1.109.47.052.023.021-.046-.043-.027-.03.05zm-.527 1.14c-1.745-.182-3.681-.279-5.252-.06-.786.109-1.484.297-2.023.596-.54.3-.921.712-1.066 1.268l.112.029c.135-.517.49-.907 1.01-1.196.521-.29 1.204-.475 1.982-.583 1.557-.216 3.482-.12 5.225.062l.012-.115zm-8.34 1.804c-.086.327-.177.529-.263.632-.042.05-.08.072-.108.078-.027.006-.056 0-.09-.024l-.069.093c.055.04.117.059.183.045a.318.318 0 0 0 .173-.118c.103-.124.2-.346.285-.677l-.112-.03zm-.243-.278a5.73 5.73 0 0 0-.309.998l.113.024c.074-.342.175-.668.303-.978l-.107-.044zm1.325-1.919a5.599 5.599 0 0 0-1.324 1.918l.106.046a5.484 5.484 0 0 1 1.297-1.88l-.08-.084zm1.95-1.221a5.928 5.928 0 0 0-1.95 1.221l.079.085a5.81 5.81 0 0 1 1.913-1.198l-.041-.108zm2.407-.424c-.857 0-1.66.141-2.406.424l.04.108a6.62 6.62 0 0 1 2.366-.416v-.116zm1.085.102a6.9 6.9 0 0 0-1.085-.102v.116c.299 0 .654.033 1.066.1l.019-.114zm1.25.27a8.282 8.282 0 0 0-1.252-.27l-.015.114c.411.055.823.144 1.234.267l.033-.111zm1.123.476a4.646 4.646 0 0 0-1.123-.476l-.032.111c.421.122.786.277 1.095.464l.06-.099zm-.51 1.272.532-1.199-.105-.047-.533 1.199.106.047z" fill="#000" fill-opacity=".03"/>
            <path fill-rule="evenodd" clip-rule="evenodd" d="M17.336 34.057a4.165 4.165 0 0 0 1.978.24c.585-.075.95.041 1.128.277v.85c-.29.157-.65.303-1.075.437a9.826 9.826 0 0 1-1.344.286c-.46.067-.902.1-1.327.1-1.21 0-2.257-.246-3.142-.739a5.127 5.127 0 0 1-2.05-2.066c-.47-.885-.706-1.91-.706-3.075 0-.907.152-1.725.454-2.453a5.54 5.54 0 0 1 1.353-1.938c-.152 1.441.212 3.003.915 4.381.001.815.147 1.501.437 2.06.302.56.694.98 1.176 1.26.493.269 1.02.403 1.58.403.223 0 .43-.008.623-.023z" fill="#18A826" fill-opacity=".58"/>
            <path d="m17.336 34.057.02-.054-.012-.005-.013.001.005.058zm1.978.24.007.057-.007-.057zm1.128.277h.058v-.02l-.012-.015-.046.035zm0 .85.028.051.03-.016v-.035h-.058zm-1.075.437.016.056h.001l-.017-.056zm-1.344.286-.008-.057.008.057zm-4.47-.639-.027.05.028-.05zm-2.049-2.066-.051.027.051-.027zm-.252-5.528-.053-.022.053.022zm1.31-1.898.04.042-.04-.042zm.043-.04.057.006.017-.152-.113.104.039.042zm.915 4.381h.058v-.014l-.006-.012-.052.026zm.437 2.06-.051.027.051-.027zm1.176 1.26-.029.05h.001l.028-.05zm2.183.434c.644.237 1.32.331 2.005.243l-.015-.114a4.109 4.109 0 0 1-1.95-.237l-.04.108zm2.005.243c.578-.074.915.044 1.075.255l.092-.07c-.198-.26-.59-.375-1.182-.3l.015.115zm1.18 1.07v-.85h-.117v.85h.116zm-1.117.492c.428-.135.79-.282 1.086-.44l-.055-.103a6.201 6.201 0 0 1-1.065.433l.034.11zm-1.353.288a9.88 9.88 0 0 0 1.352-.287l-.032-.111a9.78 9.78 0 0 1-1.336.284l.016.114zm-1.335.101c.428 0 .873-.033 1.335-.101l-.016-.114c-.457.066-.897.1-1.32.1v.115zm-3.17-.746c.895.498 1.952.746 3.17.746v-.115c-1.202 0-2.24-.245-3.114-.732l-.056.1zm-2.073-2.09a5.185 5.185 0 0 0 2.073 2.09l.056-.101a5.068 5.068 0 0 1-2.027-2.044l-.102.055zm-.712-3.102c0 1.173.236 2.207.712 3.102l.102-.054c-.465-.876-.699-1.89-.699-3.048h-.115zm.458-2.475c-.306.736-.458 1.561-.458 2.475h.115c0-.9.15-1.71.45-2.43l-.107-.045zm1.324-1.918a5.596 5.596 0 0 0-1.324 1.918l.106.045a5.481 5.481 0 0 1 1.297-1.88l-.08-.083zm.043-.04a3.995 3.995 0 0 0-.043.04l.08.084.041-.04-.078-.085zm-.018.036c-.154 1.454.214 3.027.92 4.414l.104-.053c-.7-1.37-1.06-2.921-.91-4.349l-.114-.012zm1.46 6.42c-.285-.548-.43-1.225-.43-2.033h-.116c.001.822.148 1.518.444 2.087l.102-.054zm1.154 1.237c-.471-.274-.856-.686-1.154-1.238l-.102.055c.307.568.706.997 1.198 1.283l.058-.1zm1.55.395a3.19 3.19 0 0 1-1.551-.396l-.056.102c.502.273 1.038.41 1.607.41v-.116zm.62-.023c-.192.016-.398.023-.62.023v.116c.225 0 .434-.008.628-.023l-.009-.116z" fill="#000" fill-opacity=".03"/>
            <path fill-rule="evenodd" clip-rule="evenodd" d="M20.365 34.568v-4.932h-4.318l-.154 1.383c.672.03 1.335.242 1.942.583h.177v.104c1.066.655 1.94 1.708 2.353 2.862z" fill="#009A0F" fill-opacity=".35"/>
            <path d="m20.365 34.568-.055.019.112-.02h-.057zm0-4.932h.057v-.058h-.057v.058zm-4.318 0v-.058h-.052l-.006.052.058.006zm-.154 1.383-.057-.007-.007.062.061.002.003-.057zm1.942.583-.028.05.013.008h.015v-.058zm.177 0h.058v-.058h-.058v.058zm0 .104h-.057v.032l.027.017.03-.049zm2.41 2.862v-4.932h-.115v4.932h.115zm-.057-4.99h-4.318v.116h4.318v-.116zm-4.376.052-.153 1.382.114.013.154-1.382-.115-.013zm1.875 1.922c-.614-.345-1.286-.56-1.968-.591l-.006.115c.662.03 1.316.239 1.917.576l.057-.1zm-.029.108h.177v-.116h-.177v.116zm.12-.058v.104h.115v-.104h-.115zm2.464 2.946c-.417-1.166-1.3-2.23-2.376-2.891l-.06.098c1.055.649 1.92 1.692 2.327 2.832l.109-.039z" fill="#000" fill-opacity=".03"/>
        </g>
    </g>
    <defs>
        <filter id="68hwspnl3a" x=".828" y=".344" width="55.397" height="62.423" filterUnits="userSpaceOnUse" color-interpolation-filters="sRGB">
            <feFlood flood-opacity="0" result="BackgroundImageFix"/>
            <feColorMatrix in="SourceAlpha" values="0 0 0 0 0 0 0 0 0 0 0 0 0 0 0 0 0 0 127 0" result="hardAlpha"/>
            <feOffset dy=".68"/>
            <feGaussianBlur stdDeviation="1.133"/>
            <feComposite in2="hardAlpha" operator="out"/>
            <feColorMatrix values="0 0 0 0 0.0507353 0 0 0 0 0 0 0 0 0 0.15 0 0 0 0.92 0"/>
            <feBlend in2="BackgroundImageFix" result="effect1_dropShadow_185_420"/>
            <feBlend in="SourceGraphic" in2="effect1_dropShadow_185_420" result="shape"/>
        </filter>
        <filter id="74xjjpcxsc" x="13.126" y="12.332" width="32.546" height="37.062" filterUnits="userSpaceOnUse" color-interpolation-filters="sRGB">
            <feFlood flood-opacity="0" result="BackgroundImageFix"/>
            <feColorMatrix in="SourceAlpha" values="0 0 0 0 0 0 0 0 0 0 0 0 0 0 0 0 0 0 127 0" result="hardAlpha"/>
            <feOffset/>
            <feGaussianBlur stdDeviation=".141"/>
            <feComposite in2="hardAlpha" operator="out"/>
            <feColorMatrix values="0 0 0 0 0 0 0 0 0 0 0 0 0 0 0 0 0 0 0.4 0"/>
            <feBlend in2="BackgroundImageFix" result="effect1_dropShadow_185_420"/>
            <feBlend in="SourceGraphic" in2="effect1_dropShadow_185_420" result="shape"/>
        </filter>
        <filter id="09acqcluqd" x="37.481" y="24.606" width="11.402" height="11.822" filterUnits="userSpaceOnUse" color-interpolation-filters="sRGB">
            <feFlood flood-opacity="0" result="BackgroundImageFix"/>
            <feColorMatrix in="SourceAlpha" values="0 0 0 0 0 0 0 0 0 0 0 0 0 0 0 0 0 0 127 0" result="hardAlpha"/>
            <feOffset/>
            <feGaussianBlur stdDeviation=".057"/>
            <feComposite in2="hardAlpha" operator="out"/>
            <feColorMatrix values="0 0 0 0 1 0 0 0 0 1 0 0 0 0 1 0 0 0 1 0"/>
            <feBlend in2="BackgroundImageFix" result="effect1_dropShadow_185_420"/>
            <feBlend in="SourceGraphic" in2="effect1_dropShadow_185_420" result="shape"/>
        </filter>
        <filter id="v1hpgg1lne" x="24.739" y="24.339" width="10.697" height="12.005" filterUnits="userSpaceOnUse" color-interpolation-filters="sRGB">
            <feFlood flood-opacity="0" result="BackgroundImageFix"/>
            <feColorMatrix in="SourceAlpha" values="0 0 0 0 0 0 0 0 0 0 0 0 0 0 0 0 0 0 127 0" result="hardAlpha"/>
            <feOffset/>
            <feGaussianBlur stdDeviation=".118"/>
            <feComposite in2="hardAlpha" operator="out"/>
            <feColorMatrix values="0 0 0 0 1 0 0 0 0 1 0 0 0 0 1 0 0 0 1 0"/>
            <feBlend in2="BackgroundImageFix" result="effect1_dropShadow_185_420"/>
            <feBlend in="SourceGraphic" in2="effect1_dropShadow_185_420" result="shape"/>
        </filter>
        <filter id="stg3a2382f" x="32.176" y="28.871" width="2.1" height="2.009" filterUnits="userSpaceOnUse" color-interpolation-filters="sRGB">
            <feFlood flood-opacity="0" result="BackgroundImageFix"/>
            <feColorMatrix in="SourceAlpha" values="0 0 0 0 0 0 0 0 0 0 0 0 0 0 0 0 0 0 127 0" result="hardAlpha"/>
            <feOffset dx="-.116"/>
            <feGaussianBlur stdDeviation=".058"/>
            <feComposite in2="hardAlpha" operator="out"/>
            <feColorMatrix values="0 0 0 0 0 0 0 0 0 0 0 0 0 0 0 0 0 0 0.31 0"/>
            <feBlend in2="BackgroundImageFix" result="effect1_dropShadow_185_420"/>
            <feBlend in="SourceGraphic" in2="effect1_dropShadow_185_420" result="shape"/>
        </filter>
        <filter id="80qaoeg6hg" x="10.505" y="24.158" width="10.23" height="12.383" filterUnits="userSpaceOnUse" color-interpolation-filters="sRGB">
            <feFlood flood-opacity="0" result="BackgroundImageFix"/>
            <feColorMatrix in="SourceAlpha" values="0 0 0 0 0 0 0 0 0 0 0 0 0 0 0 0 0 0 127 0" result="hardAlpha"/>
            <feOffset/>
            <feGaussianBlur stdDeviation=".118"/>
            <feComposite in2="hardAlpha" operator="out"/>
            <feColorMatrix values="0 0 0 0 1 0 0 0 0 1 0 0 0 0 1 0 0 0 1 0"/>
            <feBlend in2="BackgroundImageFix" result="effect1_dropShadow_185_420"/>
            <feBlend in="SourceGraphic" in2="effect1_dropShadow_185_420" result="shape"/>
        </filter>
        <filter id="br7jqwzplh" x="10.505" y="24.158" width="10.23" height="12.383" filterUnits="userSpaceOnUse" color-interpolation-filters="sRGB">
            <feFlood flood-opacity="0" result="BackgroundImageFix"/>
            <feColorMatrix in="SourceAlpha" values="0 0 0 0 0 0 0 0 0 0 0 0 0 0 0 0 0 0 127 0" result="hardAlpha"/>
            <feOffset/>
            <feGaussianBlur stdDeviation=".118"/>
            <feComposite in2="hardAlpha" operator="out"/>
            <feColorMatrix values="0 0 0 0 1 0 0 0 0 1 0 0 0 0 1 0 0 0 1 0"/>
            <feBlend in2="BackgroundImageFix" result="effect1_dropShadow_185_420"/>
            <feBlend in="SourceGraphic" in2="effect1_dropShadow_185_420" result="shape"/>
        </filter>
    </defs>
</svg>
