<svg width="48" height="48" viewBox="0 0 48 48" fill="none" xmlns="http://www.w3.org/2000/svg">
    <path d="M37.333 0H10.667C4.776 0 0 4.776 0 10.667v26.666C0 43.224 4.776 48 10.667 48h26.666C43.224 48 48 43.224 48 37.333V10.667C48 4.776 43.224 0 37.333 0zm.134 17.37v.915c0 8.686-6.63 18.744-18.744 18.744-3.656 0-7.086-1.144-10.056-2.97h1.6c2.97 0 5.944-1.144 8.229-2.744-2.97 0-5.256-2.056-6.17-4.571.455 0 .914.23 1.143.23.686 0 1.144 0 1.83-.23-2.971-.685-5.256-3.2-5.256-6.4.914.456 1.829.685 2.97.915-1.829-1.6-2.97-3.43-2.97-5.715 0-1.144.229-2.285.914-3.2 3.2 3.885 8 6.63 13.486 6.856 0-.456-.23-.915-.23-1.6 0-3.656 2.971-6.63 6.63-6.63 1.829 0 3.656.686 4.8 2.057 1.6-.23 2.97-.915 4.114-1.6-.456 1.6-1.6 2.744-2.97 3.656 1.37-.23 2.514-.456 3.885-1.144-.92 1.376-2.061 2.517-3.205 3.432z" fill="#fff"/>
</svg>
