<svg width="48" height="48" viewBox="0 0 48 48" fill="none" xmlns="http://www.w3.org/2000/svg">
    <path d="M5.714 0A5.716 5.716 0 0 0 0 5.714v36.572A5.716 5.716 0 0 0 5.714 48h36.572A5.716 5.716 0 0 0 48 42.286V5.714A5.716 5.716 0 0 0 42.286 0H5.714zm6.857 4.571h2.744l1.828 4.572L18.97 4.57h2.743l-3.428 8v4.572H16V12.56c-.686-1.84-2.96-6.834-3.429-7.989zM24 8c1.017 0 2.023.308 2.663 1.085.491.56.766 1.463.766 2.652v1.67c0 1.188-.228 2.01-.708 2.57-.64.766-1.704 1.166-2.721 1.166-1.017 0-2.056-.4-2.696-1.165-.492-.56-.733-1.383-.733-2.572v-1.658c0-1.189.263-2.103.766-2.663C21.977 8.308 22.846 8 24 8zm4.571 0h2.286v6.857c.057.309.388.447.697.447.468 0 1.063-.549 1.589-1.154V8h2.286v9.143h-2.286v-1.578c-.926.903-1.715 1.579-2.755 1.544-.754-.023-1.28-.297-1.542-.846-.16-.32-.275-.835-.275-1.589V8zM24 9.85a1.15 1.15 0 0 0-1.054.714c-.058.14-.089.294-.089.454v3.21a1.175 1.175 0 0 0 .699 1.073c.136.06.287.094.444.094.157 0 .308-.034.444-.094.41-.178.699-.593.699-1.073v-3.21c0-.64-.514-1.168-1.143-1.168zm-.011 10.721h.022s7.668 0 12.788.366c.72.08 2.276.092 3.67 1.52 1.097 1.075 1.45 3.543 1.45 3.543s.367 1.75.367 4.64v2.708c0 2.892-.366 4.64-.366 4.64s-.354 2.469-1.451 3.543c-1.395 1.429-2.95 1.44-3.67 1.52-5.12.366-12.799.378-12.799.378s-9.51-.092-12.435-.367c-.812-.148-2.64-.102-4.034-1.52-1.097-1.085-1.45-3.553-1.45-3.553s-.367-1.75-.367-4.64V30.64c0-2.892.366-4.641.366-4.641s.354-2.468 1.451-3.542c1.395-1.429 2.95-1.44 3.67-1.52 5.12-.366 12.788-.367 12.788-.367zM9.143 25.143v2.261h2.286v11.453h2.285V27.404H16v-2.261H9.143zm14.857 0v13.714h2.286V37.43c.72.892 1.66 1.428 2.428 1.428.86 0 1.61-.462 1.898-1.348.136-.479.236-.926.245-1.938V32.43c0-1.13-.153-1.98-.297-2.46-.288-.893-.985-1.392-1.846-1.398-1.12-.008-1.571.572-2.428 1.572v-5H24zm-8 3.428v7.641c0 .825.115 1.379.263 1.741.252.588.764.904 1.496.904.834 0 1.91-.588 2.812-1.56v1.56h2.286V28.571h-2.286v7.166c-.502.667-1.234 1.165-1.692 1.165-.297 0-.536-.125-.593-.453V28.57H16zm19.462 0c-1.152 0-2.052.363-2.703 1.047-.48.505-.759 1.331-.759 2.402v3.505c0 1.064.307 1.808.786 2.308.652.684 1.55 1.024 2.73 1.024 1.178 0 2.105-.358 2.73-1.085.274-.32.45-.682.526-1.084.02-.182.085-.675.085-1.26h-2.286v.914c0 .53-.512.96-1.142.96-.631 0-1.143-.431-1.143-.96v-2.056h4.571v-2.311c0-1.068-.262-1.85-.734-2.357-.632-.684-1.53-1.047-2.66-1.047zm-.033 1.654c.63 0 1.142.431 1.142.96v1.518h-2.285v-1.518c0-.53.512-.96 1.143-.96zm-7.748.342c.623 0 .89.383.89 1.576v3.143c0 1.193-.267 1.605-.89 1.605-.356 0-1.034-.244-1.395-.605v-5c.36-.357 1.04-.719 1.395-.719z" fill="#fff"/>
</svg>
